<svg height="514" viewBox="0 0 60 60" width="512" xmlns="http://www.w3.org/2000/svg"><g id="Page-1" fill="none" fill-rule="evenodd"><g id="001---Degree" fill="rgb(0,0,0)" fill-rule="nonzero"><path id="Shape" d="m58.669 10.118-27.99-10c-.4419711-.15600345-.9240289-.15600345-1.366 0l-27.983 10c-.79312091.2858868-1.32179815 1.038427-1.32179815 1.8815s.52867724 1.5956132 1.32179815 1.8815l13.67 4.884v6.235c0 3.888 13.465 4 15 4s15-.112 15-4v-6.235l3-1.065v2.3c0 1.1045695.8954305 2 2 2h2c1.1045695 0 2-.8954305 2-2v-3c-.0029839-.4630681-.1146467-.9189675-.326-1.331l5-1.788c.7931209-.2858868 1.3217981-1.038427 1.3217981-1.8815s-.5286772-1.5956132-1.3217981-1.8815zm-15.669 12.682c-3.809-1.734-11.835-1.8-13-1.8s-9.191.066-13 1.8v-8.712c.6-.77 5.316-2.088 13-2.088s12.4 1.318 13 2.088zm-13 4.2c-7.4 0-12.047-1.222-12.916-2 .869-.778 5.518-2 12.916-2s12.047 1.222 12.916 2c-.869.778-5.516 2-12.916 2zm18.469-11.595-3.469 1.237v-2.642c0-3.888-13.465-4-15-4s-15 .112-15 4v2.641l-13-4.641 28.014-10 19.986 7.142v5.042c-.6323143.2247022-1.1712592.6545205-1.531 1.221zm3.531 4.595h-2v-3c0-.5522847.4477153-1 1-1s1 .4477153 1 1zm0-5.856v-4.287l6 2.143z"/><path id="Shape" d="m57 31c-.0600315-.0001773-.1199516.0051787-.179.016-8.8726728 1.3794293-17.8419311 2.0429022-26.821 1.984-8.9790689.0589022-17.9483272-.6045707-26.821-1.984-.05914563-.0100897-.11900255-.01544-.179-.016-.7 0-3 .793-3 11s2.3 11 3 11c.06004793-.0012711.11990124-.0072899.179-.018 6.81770028-1.0799035 13.6994144-1.7072753 20.6-1.878l-1.952 4.682c-.2998992.7496857-.1175748 1.6062533.4616424 2.168815s1.4407385.7198238 2.1813576.398185l.765-.327.331.761c.3126556.7378909 1.0376093 1.2160686 1.839 1.213h.025c.8073899-.0062972 1.5312063-.4991084 1.833-1.248l1.737-4.158 1.731 4.142c.2991288.7559362 1.0260752 1.2555882 1.839 1.264h.03c.7959636.0032667 1.5169852-.4690182 1.832-1.2l.334-.767.753.323c.7438278.3283499 1.6125382.1719295 2.195116-.3952535.5825777-.5671831.7622009-1.4313941.453884-2.1837465l-1.914-4.59c6.2216086.2202879 12.4238858.8214132 18.572 1.8.0574962.0095142.1157284.0138649.174.013.7 0 3-.793 3-11s-2.3-11-3-11zm-23.8 3.97c.4152824 1.5269614.6571423 3.0958635.721 4.677-2.2674172-1.0543305-4.9267377-.8071562-6.961.647-.0511494-1.7957543-.2812886-3.5819291-.687-5.332 1.2113333.0253333 2.4536667.038 3.727.038 1.093 0 2.154-.012 3.2-.03zm-2.2 16.03c-2.7614237 0-5-2.2385763-5-5s2.2385763-5 5-5 5 2.2385763 5 5c-.0033061 2.7600532-2.2399468 4.9966939-5 5zm-28-17.5c.76621595 2.7654906 1.10347504 5.6321928 1 8.5.10347504 2.8678072-.23378405 5.7345094-1 8.5-.76621595-2.7654906-1.10347504-5.6321928-1-8.5-.10347504-2.8678072.23378405-5.7345094 1-8.5zm2.02 17.17c.547-1.586.98-4.24.98-8.67s-.433-7.084-.981-8.672c6.3545916.8776191 12.7525318 1.4060792 19.165 1.583.5997869 2.3136583.8744249 4.6995763.816 7.089 0 .145 0 .283-.006.422-1.2000273 1.9915849-1.3209621 4.4523451-.322 6.552l-.044.106c-6.5607744.16081-13.1072151.6923244-19.608 1.592zm22.387 7.33-.73-1.68c-.219556-.5044532-.80536-.7368087-1.311-.52l-1.683.744 2.345-5.622c.9627521.9755678 2.1909675 1.6467048 3.532 1.93zm9.227-2.2c-.50564-.2168087-1.091444.0155468-1.311.52l-.74 1.663-2.144-5.133c1.342076-.2834163 2.5713104-.9548878 3.535-1.931l2.34 5.6zm20.166-4.85c-6.4246827-.9887912-12.9030696-1.5898786-19.4-1.8l-.071-.172c1.2576047-2.6500536.718457-5.8041476-1.348-7.886-.0077336-2.0738531-.24722-4.1403459-.714-6.161 7.2107886-.1614607 14.4035315-.7901117 21.533-1.882.464.788 1.2 3.905 1.2 8.951s-.741 8.162-1.2 8.95z"/></g></g></svg>