<?xml version="1.0" standalone="no"?>
<!DOCTYPE svg PUBLIC "-//W3C//DTD SVG 20010904//EN"
 "http://www.w3.org/TR/2001/REC-SVG-20010904/DTD/svg10.dtd">
<svg version="1.0" xmlns="http://www.w3.org/2000/svg"
 width="1857.000000pt" height="1857.000000pt" viewBox="0 0 1857.000000 1857.000000"
 preserveAspectRatio="xMidYMid meet">
<metadata>
Created by potrace 1.16, written by Peter Selinger 2001-2019
</metadata>
<g transform="translate(0.000000,1857.000000) scale(0.100000,-0.100000)"
fill="#000000" stroke="none">
<path d="M0 9285 l0 -9285 9285 0 9285 0 0 9285 0 9285 -9285 0 -9285 0 0
-9285z m8401 4043 c224 -281 663 -832 930 -1168 107 -135 248 -311 312 -392
112 -141 131 -168 105 -152 -7 4 -8 3 -4 -5 4 -6 11 -9 16 -6 8 5 37 -29 215
-255 167 -211 178 -226 149 -194 -16 16 -101 119 -189 227 l-160 197 -3 -1482
c-1 -815 -1 -1483 1 -1485 2 -1 41 8 87 22 162 49 88 16 -127 -55 -854 -284
-2000 -750 -3088 -1254 -243 -113 -272 -125 -261 -108 3 5 84 285 181 623 97
338 263 918 370 1289 106 371 323 1125 480 1675 158 550 363 1266 456 1590 93
325 206 719 252 878 45 158 84 287 87 287 3 0 89 -105 191 -232z m-4508 -6667
c16 -12 17 -98 17 -1042 l0 -1029 520 0 521 0 24 -25 c24 -23 25 -29 25 -165
0 -136 -7 -174 -34 -192 -6 -4 -338 -8 -738 -8 -715 0 -728 0 -748 20 -20 20
-20 33 -20 1211 0 823 3 1196 11 1210 18 34 48 38 230 36 132 -1 180 -5 192
-16z m3217 4 c17 -9 31 -17 32 -18 2 -1 5 -276 8 -612 l5 -610 150 0 150 0
157 264 c86 145 172 280 190 299 18 19 56 45 83 58 47 22 62 24 222 24 162 0
173 -1 183 -20 14 -25 13 -26 -263 -494 l-223 -379 248 -454 c136 -250 248
-461 248 -468 0 -7 -7 -21 -16 -29 -13 -13 -42 -16 -163 -16 -284 0 -275 -8
-550 495 l-208 380 -107 3 -106 3 0 -419 0 -419 -26 -24 c-24 -23 -34 -24
-161 -27 -156 -4 -196 1 -224 29 -19 19 -19 44 -19 1209 l0 1191 25 24 c24 24
28 25 180 25 120 0 163 -3 185 -15z m3320 4 c61 -22 60 -16 60 -664 l0 -585
395 0 395 0 0 599 0 600 24 28 24 28 175 0 c172 0 176 0 201 -24 l26 -24 0
-1173 c0 -645 -3 -1180 -6 -1189 -14 -36 -57 -45 -218 -45 -166 0 -197 7 -215
47 -7 16 -11 152 -11 423 l0 400 -395 0 -394 0 -3 -411 -3 -411 -28 -24 c-27
-23 -33 -24 -197 -24 -164 0 -170 1 -197 24 l-28 24 -3 1154 c-2 824 0 1164 8
1191 17 57 46 66 216 67 81 0 155 -5 174 -11z m3588 -1 c9 -9 12 -91 12 -309
l0 -297 303 -4 c283 -4 306 -6 367 -27 143 -50 265 -150 328 -268 68 -128 72
-167 72 -638 0 -385 -2 -428 -19 -498 -24 -90 -44 -133 -104 -212 -73 -97
-179 -167 -308 -202 -57 -16 -116 -18 -529 -18 -450 0 -466 1 -500 20 -19 12
-43 36 -55 55 -20 35 -20 49 -23 1200 -1 641 0 1175 3 1188 5 22 6 22 223 22
156 0 221 -3 230 -12z m-4522 -632 c176 -57 308 -189 369 -370 24 -73 25 -81
25 -375 0 -259 -2 -302 -16 -315 -14 -14 -77 -16 -545 -16 l-529 0 0 -139 c0
-77 5 -152 11 -168 11 -31 53 -78 84 -96 14 -8 145 -14 433 -17 l414 -5 24
-28 c22 -26 24 -37 24 -127 0 -55 -5 -110 -11 -124 -25 -55 -38 -56 -516 -56
-241 0 -469 5 -507 10 -190 28 -350 179 -386 365 -8 42 -10 210 -8 560 3 488
4 501 26 559 61 162 175 278 331 337 87 32 156 38 436 35 249 -3 263 -4 341
-30z m-3182 -29 c128 -61 225 -178 255 -308 7 -27 11 -307 11 -737 l0 -694
-28 -28 c-19 -19 -44 -31 -73 -35 -24 -4 -251 -5 -504 -3 -510 5 -500 3 -637
75 -129 67 -247 225 -277 371 -6 29 -11 104 -11 167 0 139 11 198 57 295 43
91 150 203 232 245 120 60 110 59 471 65 l335 5 -1 80 c-1 115 -43 180 -132
205 -22 6 -170 10 -363 10 l-326 0 -27 26 c-25 26 -26 31 -26 139 l0 113 31
27 32 26 451 -3 451 -3 79 -38z m6034 31 c9 -9 12 -170 12 -662 l0 -651 24
-50 c27 -59 67 -96 128 -119 35 -14 77 -16 233 -14 l190 3 3 739 c1 532 5 743
13 753 10 11 56 13 233 11 l221 -3 3 -860 c2 -961 6 -903 -68 -953 l-34 -23
-496 3 -495 3 -67 27 c-134 54 -244 150 -307 268 -62 116 -61 109 -61 850 0
371 0 678 0 683 0 13 455 8 468 -5z"/>
<path d="M14035 5708 c-3 -7 -4 -274 -3 -593 l3 -580 205 -3 205 -2 52 30 c39
22 61 44 83 83 l30 52 -2 441 -3 440 -28 42 c-15 23 -46 54 -69 69 l-41 28
-214 3 c-168 2 -214 0 -218 -10z"/>
<path d="M8980 5711 c-46 -15 -85 -39 -117 -73 -52 -54 -63 -93 -63 -228 l0
-120 338 2 337 3 0 120 c0 134 -13 171 -77 231 -65 62 -89 68 -248 71 -80 1
-156 -1 -170 -6z"/>
<path d="M5635 5078 c-32 -11 -91 -52 -113 -78 -38 -44 -52 -95 -52 -190 0
-91 2 -99 33 -150 21 -37 48 -64 81 -85 l49 -30 259 -3 258 -3 0 275 0 276
-242 -1 c-142 0 -256 -5 -273 -11z"/>
</g>
</svg>
