<?xml version="1.0" standalone="no"?>
<!DOCTYPE svg PUBLIC "-//W3C//DTD SVG 20010904//EN"
 "http://www.w3.org/TR/2001/REC-SVG-20010904/DTD/svg10.dtd">
<svg version="1.0" xmlns="http://www.w3.org/2000/svg"
 width="2048.000000pt" height="2048.000000pt" viewBox="0 0 2048.000000 2048.000000"
 preserveAspectRatio="xMidYMid meet">
<metadata>
Created by potrace 1.16, written by Peter Selinger 2001-2019
</metadata>
<g transform="translate(0.000000,2048.000000) scale(0.100000,-0.100000)"
fill="#646583" stroke="none">
<path d="M0 10240 l0 -10240 10240 0 10240 0 0 10240 0 10240 -10240 0 -10240
0 0 -10240z m6916 6325 c721 -101 1343 -548 1921 -1380 252 -363 644 -1046
1191 -2079 186 -351 207 -386 219 -370 8 11 55 98 105 194 362 696 842 1559
1091 1960 568 919 1185 1453 1881 1631 289 74 696 80 983 14 264 -60 566 -210
803 -400 703 -562 1331 -1665 1873 -3295 254 -763 584 -1949 786 -2825 233
-1012 365 -1831 433 -2700 21 -257 17 -1019 -5 -1230 -81 -755 -284 -1280
-642 -1653 -275 -288 -585 -445 -978 -497 -467 -61 -1007 85 -1564 423 -444
269 -1080 815 -1652 1417 l-152 160 -17 -25 c-9 -14 -71 -97 -138 -186 -765
-1021 -1612 -1643 -2442 -1795 -146 -27 -479 -37 -616 -20 -516 67 -970 273
-1493 678 -381 295 -817 761 -1162 1241 -40 57 -77 102 -81 100 -4 -2 -98 -97
-207 -213 -427 -450 -976 -935 -1368 -1210 -959 -671 -1878 -766 -2555 -264
-396 293 -668 783 -794 1429 -51 261 -74 512 -82 885 -31 1356 329 3309 1057
5724 597 1981 1304 3292 2097 3889 297 223 587 349 912 396 134 19 460 20 596
1z"/>
<path d="M6587 15565 c-90 -25 -159 -67 -238 -144 -238 -236 -400 -684 -466
-1289 -21 -194 -24 -777 -5 -982 128 -1378 550 -3044 1150 -4541 147 -366 385
-899 402 -899 4 0 55 69 112 153 635 923 1186 1878 2005 3474 l110 213 -70
137 c-811 1609 -1348 2591 -1647 3013 -241 339 -516 614 -734 732 -238 129
-461 176 -619 133z"/>
<path d="M13585 15560 c-470 -124 -857 -499 -1325 -1285 -280 -471 -667 -1197
-1296 -2432 l-148 -291 89 -174 c704 -1380 1291 -2415 1818 -3208 141 -212
320 -471 323 -468 1 2 39 82 84 178 693 1480 1273 3499 1440 5017 38 350 52
848 30 1120 -45 547 -166 977 -359 1264 -60 90 -181 209 -248 243 -118 59
-270 73 -408 36z"/>
<path d="M4671 13255 c-34 -79 -157 -427 -234 -660 -146 -444 -233 -743 -452
-1558 -202 -753 -420 -1745 -535 -2437 -312 -1874 -239 -3115 211 -3551 117
-113 277 -162 457 -139 332 42 674 222 1107 584 410 344 817 749 1197 1195
l115 134 -116 231 c-704 1397 -1288 3221 -1585 4946 -71 414 -125 849 -145
1165 -7 110 -8 118 -20 90z"/>
<path d="M15786 13203 c-26 -324 -43 -483 -76 -728 -200 -1473 -688 -3222
-1294 -4638 -115 -269 -164 -375 -328 -709 l-151 -307 84 -98 c424 -496 883
-952 1303 -1292 395 -319 726 -486 1032 -521 123 -14 236 3 331 50 278 137
463 591 513 1255 13 178 13 670 0 885 -67 1107 -309 2423 -750 4073 -177 664
-308 1108 -448 1527 -64 189 -200 571 -207 578 -2 2 -6 -32 -9 -75z"/>
<path d="M10204 10288 c-738 -1388 -1388 -2447 -2026 -3306 -87 -117 -158
-215 -158 -218 0 -12 212 -318 320 -463 183 -244 319 -400 525 -607 366 -367
733 -618 1065 -728 410 -137 797 -61 1258 247 210 141 368 272 577 482 206
205 341 361 525 606 108 145 320 451 320 463 0 3 -65 92 -143 198 -648 871
-1300 1933 -2046 3336 -57 105 -104 192 -106 192 -1 0 -51 -91 -111 -202z"/>
</g>
</svg>
